<?xml version="1.0" encoding="UTF-8" standalone="no"?>
<svg
   xmlns:dc="http://purl.org/dc/elements/1.1/"
   xmlns:cc="http://creativecommons.org/ns#"
   xmlns:rdf="http://www.w3.org/1999/02/22-rdf-syntax-ns#"
   xmlns:svg="http://www.w3.org/2000/svg"
   xmlns="http://www.w3.org/2000/svg"
   xmlns:sodipodi="http://sodipodi.sourceforge.net/DTD/sodipodi-0.dtd"
   xmlns:inkscape="http://www.inkscape.org/namespaces/inkscape"
   height="20px"
   version="1.1"
   viewBox="0 0 20 20"
   width="20px"
   id="svg3739"
   sodipodi:docname="pdi_scheduler_logo1.svg"
   inkscape:version="0.92.3 (2405546, 2018-03-11)"
   inkscape:export-filename="D:\Develop\CubaStudioProjects\pdi_scheduler_logo1_128.png"
   inkscape:export-xdpi="614.40002"
   inkscape:export-ydpi="614.40002">
  <metadata
     id="metadata3743">
    <rdf:RDF>
      <cc:Work
         rdf:about="">
        <dc:format>image/svg+xml</dc:format>
        <dc:type
           rdf:resource="http://purl.org/dc/dcmitype/StillImage" />
        <dc:title></dc:title>
      </cc:Work>
    </rdf:RDF>
  </metadata>
  <sodipodi:namedview
     pagecolor="#ffffff"
     bordercolor="#666666"
     borderopacity="1"
     objecttolerance="10"
     gridtolerance="10"
     guidetolerance="10"
     inkscape:pageopacity="0"
     inkscape:pageshadow="2"
     inkscape:window-width="1284"
     inkscape:window-height="760"
     id="namedview3741"
     showgrid="false"
     inkscape:zoom="32.05"
     inkscape:cx="7.5350016"
     inkscape:cy="10.232505"
     inkscape:window-x="119"
     inkscape:window-y="9"
     inkscape:window-maximized="0"
     inkscape:current-layer="layer1" />
  <desc
     id="desc3731" />
  <defs
     id="defs3733" />
  <g
     inkscape:groupmode="layer"
     id="layer1"
     inkscape:label="color">
    <path
       style="opacity:1;fill:#006bac;fill-opacity:1;stroke:#ff0000;stroke-width:0;stroke-miterlimit:4;stroke-dasharray:none;stroke-opacity:1"
       id="path3745"
       sodipodi:type="arc"
       sodipodi:cx="10.000008"
       sodipodi:cy="10.000009"
       sodipodi:rx="8.0031242"
       sodipodi:ry="8.0030813"
       sodipodi:start="6.2196162"
       sodipodi:end="6.1989175"
       sodipodi:open="true"
       d="M 17.986967,9.4916024 A 8.0031242,8.0030813 0 0 1 10.549739,17.984187 8.0031242,8.0030813 0 0 1 2.0187377,10.591045 8.0031242,8.0030813 0 0 1 9.3676752,2.0219467 8.0031242,8.0030813 0 0 1 17.974733,9.3264043"
       inkscape:export-xdpi="767.66962"
       inkscape:export-ydpi="767.66962" />
  </g>
  <g
     fill="none"
     fill-rule="evenodd"
     id="Page-1"
     stroke="none"
     stroke-width="1">
    <g
       fill="#000000"
       fill-opacity="0.9"
       id="Icons-Device"
       transform="translate(-44.000000, 0.000000)">
      <g
         id="access-time"
         transform="translate(44.000000, 0.000000)">
        <path
           d="M10,0 C4.5,0 0,4.5 0,10 C0,15.5 4.5,20 10,20 C15.5,20 20,15.5 20,10 C20,4.5 15.5,0 10,0 L10,0 Z M10,18 C5.6,18 2,14.4 2,10 C2,5.6 5.6,2 10,2 C14.4,2 18,5.6 18,10 C18,14.4 14.4,18 10,18 Z M10.5,5 L9,5 L9,11 L14.2,14.2 L15,12.9 L10.5,10.2 L10.5,5 Z"
           id="Shape" />
      </g>
    </g>
  </g>
</svg>
